<svg xmlns="http://www.w3.org/2000/svg" xmlns:xlink="http://www.w3.org/1999/xlink" width="1000" zoomAndPan="magnify" viewBox="0 0 750 749.999995" height="1000" preserveAspectRatio="xMidYMid meet" version="1.0"><defs><g/></defs><g fill="#1d2b35" fill-opacity="1"><g transform="translate(0.00000265, 581.119972)"><g><path d="M 121.765625 0 L 35.984375 0 L 35.984375 -387.453125 L 196.5 -387.453125 C 227.863281 -387.453125 254.796875 -383.578125 277.296875 -375.828125 C 299.804688 -368.078125 316.96875 -357.5625 328.78125 -344.28125 C 340.21875 -330.988281 348.519531 -316.96875 353.6875 -302.21875 C 358.476562 -287.457031 360.875 -271.40625 360.875 -254.0625 C 360.875 -217.15625 347.59375 -185.972656 321.03125 -160.515625 C 294.457031 -134.679688 252.945312 -121.765625 196.5 -121.765625 L 121.765625 -121.765625 Z M 198.703125 -307.1875 L 121.765625 -307.1875 L 121.765625 -202.03125 L 195.390625 -202.03125 C 246.304688 -202.03125 271.765625 -219.554688 271.765625 -254.609375 C 271.765625 -289.660156 247.410156 -307.1875 198.703125 -307.1875 Z M 198.703125 -307.1875 "/></g></g></g><g fill="#1d2b35" fill-opacity="1"><g transform="translate(374.718847, 581.119972)"><g><path d="M 35.984375 0 L 35.984375 -387.453125 L 209.21875 -387.453125 C 298.519531 -387.453125 343.171875 -354.425781 343.171875 -288.375 C 343.171875 -254.789062 330.625 -227.113281 305.53125 -205.34375 C 339.113281 -189.476562 355.90625 -159.40625 355.90625 -115.125 C 355.90625 -76.007812 342.25 -47.046875 314.9375 -28.234375 C 287.632812 -9.410156 250.921875 0 204.796875 0 Z M 200.359375 -158.859375 L 121.765625 -158.859375 L 121.765625 -80.25 L 195.9375 -80.25 C 221.394531 -80.25 239.476562 -83.390625 250.1875 -89.671875 C 260.882812 -95.566406 266.234375 -105.710938 266.234375 -120.109375 C 266.234375 -133.765625 261.25 -143.726562 251.28125 -150 C 241.320312 -155.90625 224.347656 -158.859375 200.359375 -158.859375 Z M 194.828125 -307.1875 L 121.765625 -307.1875 L 121.765625 -236.34375 L 202.03125 -236.34375 C 219 -236.34375 231.910156 -239.296875 240.765625 -245.203125 C 249.628906 -250.734375 254.0625 -258.664062 254.0625 -269 C 254.0625 -282.28125 249.816406 -292.0625 241.328125 -298.34375 C 232.835938 -304.238281 217.335938 -307.1875 194.828125 -307.1875 Z M 194.828125 -307.1875 "/></g></g></g></svg>