<svg xmlns="http://www.w3.org/2000/svg" width="440.78" height="53.14" viewBox="0 0 440.78 53.14">
  <title>Passive Book Green</title>
  <g id="Layer_2" data-name="Layer 2">
    <g id="Layer_1-2" data-name="Layer 1">
      <g id="Passive_Book_Green" data-name="Passive Book Green">
        <path d="M4.68,61.2V10.79H25.56a32.41,32.41,0,0,1,10.52,1.52,15.3,15.3,0,0,1,6.66,4.1A16.24,16.24,0,0,1,46,21.88a19.72,19.72,0,0,1,1,6.27,16.29,16.29,0,0,1-5.19,12.2q-5.17,5-16.2,5H15.84V61.2Zm11.16-40V34.92h9.58q9.93,0,9.94-6.84t-9.51-6.84Z" transform="translate(-4.68 -8.63)" style="fill: #00d07e"/>
        <path d="M52.2,28.72Q57.75,23,68.69,23,76,23,80,27c2.69,2.72,4,6.54,4,11.49V61.2H73.58V57.82a10.7,10.7,0,0,1-4.06,2.66,15.52,15.52,0,0,1-6,1.15c-4.12,0-7.44-1.11-9.93-3.35a11.32,11.32,0,0,1-3.75-8.89,10.23,10.23,0,0,1,4.86-9.22,22.22,22.22,0,0,1,12.14-3.09,20.37,20.37,0,0,1,6.76.93A4.84,4.84,0,0,0,72.15,34a7.1,7.1,0,0,0-4.61-1.27,16.15,16.15,0,0,0-5.22.76,21.36,21.36,0,0,0-5.15,2.85ZM70.45,51.41a7.46,7.46,0,0,0,3.13-3V46.65a16.27,16.27,0,0,0-5.68-.93q-7.28,0-7.28,3.67A2.71,2.71,0,0,0,62,51.77a6.8,6.8,0,0,0,3.7.86A9.72,9.72,0,0,0,70.45,51.41Z" transform="translate(-4.68 -8.63)" style="fill: #00d07e"/>
        <path d="M108.68,48.31q-2.19-.8-5.29-1.66a53,53,0,0,1-6.23-2.16,14,14,0,0,1-5.33-3.85,9,9,0,0,1-2.19-6.08,9.94,9.94,0,0,1,4.28-8.5Q98.21,23,105.77,23a22.15,22.15,0,0,1,9.4,2,14.45,14.45,0,0,1,6.15,4.79l-7.13,6.84q-3.73-3.89-10.51-3.89c-2.16,0-3.24.61-3.24,1.81,0,.57.73,1.09,2.2,1.54s3.22,1,5.29,1.51a52.75,52.75,0,0,1,6.23,2.13,13.47,13.47,0,0,1,5.33,4A9.68,9.68,0,0,1,121.68,50a9.92,9.92,0,0,1-4.5,8.82,20.1,20.1,0,0,1-11.34,3,22.76,22.76,0,0,1-11.12-2.56,16.59,16.59,0,0,1-6.81-6.52l8.28-5.61a12.38,12.38,0,0,0,4.54,3.52A14.09,14.09,0,0,0,107,52.05c2.59,0,3.89-.67,3.89-2C110.88,49.41,110.15,48.84,108.68,48.31Z" transform="translate(-4.68 -8.63)" style="fill: #00d07e"/>
        <path d="M144.4,48.31c-1.47-.53-3.23-1.08-5.3-1.66a53,53,0,0,1-6.23-2.16,13.86,13.86,0,0,1-5.32-3.85,9,9,0,0,1-2.2-6.08,9.94,9.94,0,0,1,4.28-8.5Q133.92,23,141.48,23a22.15,22.15,0,0,1,9.4,2A14.45,14.45,0,0,1,157,29.73l-7.13,6.84q-3.74-3.89-10.51-3.89c-2.16,0-3.24.61-3.24,1.81,0,.57.73,1.09,2.2,1.54s3.23,1,5.29,1.51a52.75,52.75,0,0,1,6.23,2.13,13.47,13.47,0,0,1,5.33,4A9.68,9.68,0,0,1,157.39,50a9.92,9.92,0,0,1-4.5,8.82,20.1,20.1,0,0,1-11.34,3,22.76,22.76,0,0,1-11.12-2.56,16.59,16.59,0,0,1-6.81-6.52l8.28-5.61a12.38,12.38,0,0,0,4.54,3.52,14.12,14.12,0,0,0,6.26,1.44c2.6,0,3.89-.67,3.89-2C146.59,49.41,145.86,48.84,144.4,48.31Z" transform="translate(-4.68 -8.63)" style="fill: #00d07e"/>
        <path d="M163.37,10.11a6.15,6.15,0,0,1,4.24-1.48,6.07,6.07,0,0,1,4.18,1.48,4.77,4.77,0,0,1,1.66,3.71,5,5,0,0,1-1.66,3.82,6,6,0,0,1-4.18,1.51,6.07,6.07,0,0,1-4.32-1.48,5,5,0,0,1-1.58-3.85A4.74,4.74,0,0,1,163.37,10.11Zm-1,13.65H172.8V61.2H162.36Z" transform="translate(-4.68 -8.63)" style="fill: #00d07e"/>
        <path d="M200,61.2h-7.92L174.88,23.76h11.74l9.58,21.6,9.14-21.6h11.09Z" transform="translate(-4.68 -8.63)" style="fill: #00d07e"/>
        <path d="M250.92,54.29q-6,7.49-16.13,7.49-9.15,0-14.69-5.3t-5.54-14.07q0-8.5,5.11-14T234,23a17.92,17.92,0,0,1,12.81,4.76,16.31,16.31,0,0,1,5,12.45,42,42,0,0,1-.57,6H225.5q1.44,5.84,9.43,5.83A14.46,14.46,0,0,0,240.41,51a10.3,10.3,0,0,0,4.24-3Zm-25.2-17.07h15.33q-1.29-4.89-7.41-4.89T225.72,37.22Z" transform="translate(-4.68 -8.63)" style="fill: #00d07e"/>
        <path d="M275,10.79H297.5q17.43,0,17.43,12.89A13.72,13.72,0,0,1,310,34.49q6.56,3.09,6.55,11.73,0,7.64-5.33,11.31T296.93,61.2H275Zm11.16,10.45v9.21h10.44a9.43,9.43,0,0,0,5.05-1.11,3.54,3.54,0,0,0,1.72-3.14,4.36,4.36,0,0,0-1.65-3.78c-1.11-.79-3.12-1.18-6.05-1.18Zm0,19.29V50.76h9.65q5,0,7.06-1.19a4.23,4.23,0,0,0,2.09-4A4.17,4.17,0,0,0,303,41.72q-1.94-1.19-6.62-1.19Z" transform="translate(-4.68 -8.63)" style="fill: #00d07e"/>
        <path d="M326.19,28.44Q331.85,23,340.77,23t14.66,5.48a18.48,18.48,0,0,1,5.72,14,18.41,18.41,0,0,1-5.72,13.89q-5.73,5.48-14.66,5.48A20.17,20.17,0,0,1,326.3,56.3a18.34,18.34,0,0,1-5.76-13.89A18.57,18.57,0,0,1,326.19,28.44ZM334,49.32a9,9,0,0,0,6.8,2.73,9,9,0,0,0,9.58-9.64,9.38,9.38,0,0,0-2.74-7.1,9.48,9.48,0,0,0-6.84-2.63,9.32,9.32,0,0,0-6.77,2.6,9.49,9.49,0,0,0-2.66,7.13A9.6,9.6,0,0,0,334,49.32Z" transform="translate(-4.68 -8.63)" style="fill: #00d07e"/>
        <path d="M369.68,28.44Q375.34,23,384.26,23t14.65,5.48a18.45,18.45,0,0,1,5.73,14,18.39,18.39,0,0,1-5.73,13.89q-5.71,5.48-14.65,5.48a20.17,20.17,0,0,1-14.47-5.48A18.34,18.34,0,0,1,364,42.41,18.57,18.57,0,0,1,369.68,28.44Zm7.78,20.88a9,9,0,0,0,6.8,2.73,9,9,0,0,0,9.58-9.64,9.21,9.21,0,0,0-9.58-9.73,9.31,9.31,0,0,0-6.77,2.6,9.45,9.45,0,0,0-2.66,7.13A9.56,9.56,0,0,0,377.46,49.32Z" transform="translate(-4.68 -8.63)" style="fill: #00d07e"/>
        <path d="M409.31,8.63h10.44v27.8l11.81-12.67H445L428.9,40.1l16.56,21.1H432.21L421.05,47.09l-1.3.86V61.2H409.31Z" transform="translate(-4.68 -8.63)" style="fill: #00d07e"/>
      </g>
    </g>
  </g>
</svg>
