<svg xmlns="http://www.w3.org/2000/svg" width="440.78" height="53.14" viewBox="0 0 440.78 53.14">
  <title>Passive Book Black</title>
  <g id="Layer_2" data-name="Layer 2">
    <g id="Layer_1-2" data-name="Layer 1">
      <g id="Passive_Book_Black" data-name="Passive Book Black">
        <path d="M0,52.56V2.16H20.88A32.32,32.32,0,0,1,31.39,3.67a15.29,15.29,0,0,1,6.67,4.11,16.15,16.15,0,0,1,3.24,5.47,19.7,19.7,0,0,1,1,6.26,16.33,16.33,0,0,1-5.19,12.21q-5.17,5-16.2,5H11.16V52.56Zm11.16-40V26.28h9.58q9.93,0,9.93-6.84t-9.5-6.84Z" style="fill: #231f20"/>
        <path d="M47.52,20.09Q53.07,14.33,64,14.33q7.27,0,11.3,4.07t4,11.48V52.56H68.9V49.18a10.55,10.55,0,0,1-4.06,2.66,15.52,15.52,0,0,1-6,1.16c-4.12,0-7.44-1.12-9.93-3.35a11.34,11.34,0,0,1-3.75-8.89A10.22,10.22,0,0,1,50,31.54a22.14,22.14,0,0,1,12.14-3.1,20.09,20.09,0,0,1,6.76.94,4.83,4.83,0,0,0-1.44-4.07,7.06,7.06,0,0,0-4.6-1.26,15.88,15.88,0,0,0-5.22.76,21.27,21.27,0,0,0-5.15,2.84ZM65.77,42.77a7.38,7.38,0,0,0,3.13-3V38a16.3,16.3,0,0,0-5.68-.94q-7.28,0-7.28,3.68a2.69,2.69,0,0,0,1.34,2.37A6.71,6.71,0,0,0,61,44,9.63,9.63,0,0,0,65.77,42.77Z" style="fill: #231f20"/>
        <path d="M104,39.68q-2.19-.8-5.29-1.66a56.93,56.93,0,0,1-6.23-2.16A14.08,14.08,0,0,1,87.15,32,9.08,9.08,0,0,1,85,25.92a9.91,9.91,0,0,1,4.28-8.49q4.29-3.11,11.85-3.1a22.07,22.07,0,0,1,9.39,2,14.42,14.42,0,0,1,6.16,4.79l-7.13,6.84Q105.78,24.06,99,24.05q-3.24,0-3.24,1.8c0,.58.73,1.09,2.2,1.55s3.22,1,5.29,1.51A50.91,50.91,0,0,1,109.48,31a13.56,13.56,0,0,1,5.32,4,9.59,9.59,0,0,1,2.2,6.33,9.9,9.9,0,0,1-4.5,8.82,20.1,20.1,0,0,1-11.34,3A22.71,22.71,0,0,1,90,50.58a16.54,16.54,0,0,1-6.8-6.51l8.28-5.62A12.4,12.4,0,0,0,96.05,42a14.09,14.09,0,0,0,6.26,1.44c2.59,0,3.89-.67,3.89-2C106.2,40.78,105.47,40.2,104,39.68Z" style="fill: #231f20"/>
        <path d="M139.72,39.68c-1.47-.53-3.23-1.08-5.3-1.66a56.93,56.93,0,0,1-6.23-2.16A14,14,0,0,1,122.87,32a9,9,0,0,1-2.2-6.09A9.91,9.91,0,0,1,125,17.43q4.29-3.11,11.85-3.1a22.15,22.15,0,0,1,9.4,2,14.45,14.45,0,0,1,6.15,4.79l-7.13,6.84q-3.74-3.89-10.51-3.89-3.24,0-3.24,1.8c0,.58.73,1.09,2.2,1.55s3.22,1,5.29,1.51A50.91,50.91,0,0,1,145.19,31a13.59,13.59,0,0,1,5.33,4,9.63,9.63,0,0,1,2.19,6.33,9.9,9.9,0,0,1-4.5,8.82,20.1,20.1,0,0,1-11.34,3,22.65,22.65,0,0,1-11.12-2.56,16.51,16.51,0,0,1-6.81-6.51l8.28-5.62A12.4,12.4,0,0,0,131.76,42,14.09,14.09,0,0,0,138,43.42c2.59,0,3.89-.67,3.89-2C141.91,40.78,141.18,40.2,139.72,39.68Z" style="fill: #231f20"/>
        <path d="M158.68,1.48A6.13,6.13,0,0,1,162.93,0a6,6,0,0,1,4.18,1.48,4.76,4.76,0,0,1,1.66,3.7A5,5,0,0,1,167.11,9a6,6,0,0,1-4.18,1.51A6.12,6.12,0,0,1,158.61,9,5.06,5.06,0,0,1,157,5.18,4.75,4.75,0,0,1,158.68,1.48Zm-1,13.64h10.44V52.56H157.68Z" style="fill: #231f20"/>
        <path d="M195.33,52.56h-7.92L170.2,15.12h11.74l9.58,21.6,9.14-21.6h11.09Z" style="fill: #231f20"/>
        <path d="M246.24,45.65q-6,7.49-16.13,7.49-9.15,0-14.69-5.29t-5.54-14.08q0-8.49,5.11-14t14.33-5.47a17.92,17.92,0,0,1,12.81,4.75,16.33,16.33,0,0,1,5,12.46,42.24,42.24,0,0,1-.57,6.05H220.82q1.44,5.83,9.43,5.83a14.46,14.46,0,0,0,5.48-1.08,10.39,10.39,0,0,0,4.24-3ZM221,28.59h15.33q-1.29-4.9-7.41-4.9T221,28.59Z" style="fill: #231f20"/>
        <path d="M270.28,2.16h22.54q17.43,0,17.43,12.89a13.68,13.68,0,0,1-4.9,10.8q6.56,3.09,6.55,11.74,0,7.63-5.33,11.3t-14.33,3.67h-22ZM281.44,12.6v9.22h10.44a9.33,9.33,0,0,0,5.05-1.12,3.52,3.52,0,0,0,1.72-3.13A4.33,4.33,0,0,0,297,13.79c-1.11-.79-3.12-1.19-6.05-1.19Zm0,19.3V42.12h9.65c3.31,0,5.67-.39,7.06-1.18a4.25,4.25,0,0,0,2.09-4,4.16,4.16,0,0,0-1.95-3.85c-1.29-.8-3.5-1.19-6.62-1.19Z" style="fill: #231f20"/>
        <path d="M321.51,19.8q5.65-5.48,14.58-5.47t14.66,5.47a18.51,18.51,0,0,1,5.72,14,18.42,18.42,0,0,1-5.72,13.9q-5.73,5.47-14.66,5.47a20.16,20.16,0,0,1-14.47-5.47,18.34,18.34,0,0,1-5.76-13.9A18.6,18.6,0,0,1,321.51,19.8Zm7.78,20.88a9,9,0,0,0,6.8,2.74,9,9,0,0,0,9.58-9.65,9.34,9.34,0,0,0-2.74-7.09,9.48,9.48,0,0,0-6.84-2.63,9.32,9.32,0,0,0-6.77,2.59,9.52,9.52,0,0,0-2.66,7.13A9.56,9.56,0,0,0,329.29,40.68Z" style="fill: #231f20"/>
        <path d="M365,19.8q5.65-5.48,14.58-5.47t14.65,5.47a18.49,18.49,0,0,1,5.73,14,18.39,18.39,0,0,1-5.73,13.9q-5.72,5.47-14.65,5.47a20.16,20.16,0,0,1-14.47-5.47,18.34,18.34,0,0,1-5.76-13.9A18.6,18.6,0,0,1,365,19.8Zm7.77,20.88a9,9,0,0,0,6.81,2.74,9,9,0,0,0,9.58-9.65,9.38,9.38,0,0,0-2.74-7.09,9.48,9.48,0,0,0-6.84-2.63,9.3,9.3,0,0,0-6.77,2.59,9.48,9.48,0,0,0-2.66,7.13A9.56,9.56,0,0,0,372.77,40.68Z" style="fill: #231f20"/>
        <path d="M404.63,0h10.44V27.79l11.81-12.67h13.4L424.22,31.47l16.56,21.09H427.53L416.37,38.45l-1.3.87V52.56H404.63Z" style="fill: #231f20"/>
      </g>
    </g>
  </g>
</svg>
